<?xml version="1.0" encoding="UTF-8" standalone="no"?>
<svg
   xmlns:dc="http://purl.org/dc/elements/1.1/"
   xmlns:cc="http://creativecommons.org/ns#"
   xmlns:rdf="http://www.w3.org/1999/02/22-rdf-syntax-ns#"
   xmlns:svg="http://www.w3.org/2000/svg"
   xmlns="http://www.w3.org/2000/svg"
   viewBox="0 0 382.61828 73.851334"
   height="73.851334"
   width="382.61829"
   xml:space="preserve"
   version="1.1"
   id="svg2"><metadata
     id="metadata8"><rdf:RDF><cc:Work
         rdf:about=""><dc:format>image/svg+xml</dc:format><dc:type
           rdf:resource="http://purl.org/dc/dcmitype/StillImage" /><dc:title></dc:title></cc:Work></rdf:RDF></metadata><defs
     id="defs6"><clipPath
       id="clipPath16"
       clipPathUnits="userSpaceOnUse"><path
         id="path18"
         d="m 0,208.508 510.345,0 L 510.345,0 0,0 0,208.508 Z" /></clipPath></defs><g
     transform="matrix(1.25,0,0,-1.25,-122.47809,155.26196)"
     id="g10"><g
       id="g12"><g
         clip-path="url(#clipPath16)"
         id="g14"><g
           transform="translate(144.0215,119.104)"
           id="g20"><path
             id="path22"
             style="fill:#797677;fill-opacity:1;fill-rule:nonzero;stroke:none"
             d="m 0,0 c 6.904,-6.402 4.381,-20.352 -5.64,-31.165 -10.02,-10.813 -23.737,-14.386 -30.642,-7.987 -6.904,6.396 -4.381,20.345 5.641,31.159 C -20.622,2.82 -6.901,6.393 0,0 m -41.456,-44.736 c 8.13,-7.533 24.285,-3.323 36.085,9.409 C 6.426,-22.598 9.397,-6.169 1.27,1.367 -6.861,8.901 -23.016,4.69 -34.813,-8.045 -46.612,-20.774 -49.586,-37.199 -41.456,-44.736" /></g><g
           transform="translate(140.1465,114.4971)"
           id="g24"><path
             id="path26"
             style="fill:#79cfb3;fill-opacity:1;fill-rule:nonzero;stroke:none"
             d="m 0,0 c 3.907,-3.619 2.479,-11.514 -3.19,-17.631 -5.67,-6.119 -13.432,-8.143 -17.338,-4.521 -3.906,3.621 -2.477,11.514 3.193,17.631 C -11.667,1.597 -3.906,3.619 0,0 m -24.868,-26.833 c 5.081,-4.711 15.178,-2.077 22.552,5.878 7.376,7.959 9.234,18.226 4.151,22.936 -5.08,4.711 -15.178,2.077 -22.551,-5.881 -7.374,-7.959 -9.231,-18.224 -4.152,-22.933" /></g><g
           transform="translate(184.1069,105.1602)"
           id="g28"><path
             id="path30"
             style="fill:#797677;fill-opacity:1;fill-rule:nonzero;stroke:none"
             d="m 0,0 c -0.291,7.037 -5.595,10.558 -13.209,10.558 -4.674,0 -11.307,-1.962 -11.307,-8.769 0,-6.631 7.038,-7.732 14.017,-9.174 7.039,-1.441 14.076,-3.227 14.076,-11.419 0,-8.536 -8.193,-11.594 -14.479,-11.594 -9.634,0 -17.477,3.981 -17.362,14.592 l 2.538,0 c -0.519,-8.998 6.69,-12.401 14.824,-12.401 4.96,0 11.941,2.249 11.941,9.403 0,6.982 -7.037,8.192 -14.076,9.633 -6.98,1.442 -14.017,3.114 -14.017,10.96 0,7.904 7.325,10.96 13.845,10.96 C -4.616,12.749 2.134,9.058 2.539,0 L 0,0 Z" /></g><path
           id="path32"
           style="fill:#79cfb3;fill-opacity:1;fill-rule:nonzero;stroke:none"
           d="m 193.138,116.93 2.191,0 0,-5.942 -2.191,0 0,5.942 z" /><g
           transform="translate(201.8203,105.3926)"
           id="g34"><path
             id="path36"
             style="fill:#797677;fill-opacity:1;fill-rule:nonzero;stroke:none"
             d="m 0,0 2.191,0 0,-6.057 0.116,0 c 0.923,3.75 4.846,6.749 9.288,6.749 5.654,0 8.304,-3.231 8.941,-6.29 l 0.114,0 c 1.731,4.038 4.615,6.29 9.404,6.29 5.363,0 9.287,-3.116 9.287,-10.095 l 0,-20.248 -2.193,0 0,20.308 c 0,7.554 -5.364,8.131 -7.094,8.131 -5.366,0 -9.289,-3.809 -9.289,-10.902 l 0,-17.537 -2.191,0 0,20.308 c 0,7.436 -5.076,8.131 -6.979,8.131 -4.212,0 -9.404,-3.288 -9.404,-10.902 l 0,-17.537 -2.191,0 L 0,0 Z" /></g><g
           transform="translate(271.8828,90.5098)"
           id="g38"><path
             id="path40"
             style="fill:#797677;fill-opacity:1;fill-rule:nonzero;stroke:none"
             d="m 0,0 c 0,6.749 -3.173,13.671 -11.133,13.671 -7.904,0 -10.845,-6.635 -10.845,-13.671 0,-7.037 2.48,-13.557 10.845,-13.557 C -3.404,-13.557 0,-7.327 0,0 m -22.034,8.076 0.115,0 c 0.923,2.941 4.268,7.499 10.786,7.499 9.113,0 13.325,-7.212 13.325,-15.575 0,-8.999 -4.268,-15.458 -13.325,-15.458 -4.902,0 -9.057,2.077 -10.786,6.864 l -0.115,0 0,-16.787 -2.194,0 0,40.264 2.194,0 0,-6.807 z" /></g><path
           id="path42"
           style="fill:#797677;fill-opacity:1;fill-rule:nonzero;stroke:none"
           d="m 281.376,75.741 -2.192,0 0,41.188 2.192,0 0,-41.188 z" /><path
           id="path44"
           style="fill:#79cfb3;fill-opacity:1;fill-rule:nonzero;stroke:none"
           d="m 288.327,116.93 2.192,0 0,-5.942 -2.192,0 0,5.942 z" /><g
           transform="translate(319.7949,90.6245)"
           id="g46"><path
             id="path48"
             style="fill:#797677;fill-opacity:1;fill-rule:nonzero;stroke:none"
             d="m 0,0 c 0,6.807 -3.462,13.556 -10.961,13.556 -7.613,0 -11.076,-6.575 -11.076,-13.556 0,-7.152 3.174,-13.671 11.018,-13.671 C -3.404,-13.671 0,-6.919 0,0 m 0.057,-8.249 -0.118,0 c -1.555,-4.669 -6.112,-7.324 -10.958,-7.324 -8.94,0 -13.21,6.807 -13.21,15.573 0,8.191 3.867,15.46 12.808,15.46 5.306,0 8.939,-2.366 11.36,-7.037 l 0.118,0 0,6.345 2.191,0 0,-40.264 -2.191,0 0,17.247 z" /></g><g
           transform="translate(351.9551,75.7412)"
           id="g50"><path
             id="path52"
             style="fill:#797677;fill-opacity:1;fill-rule:nonzero;stroke:none"
             d="m 0,0 -2.189,0 0,6.348 -0.117,0 c -1.501,-4.444 -6.001,-7.037 -10.613,-7.037 -10.44,0 -10.556,8.363 -10.556,11.997 l 0,18.343 2.191,0 0,-18.749 c 0,-3.055 0.346,-9.69 8.422,-9.69 6.634,0 10.673,5.136 10.673,12.401 l 0,16.038 2.189,0 L 0,0 Z" /></g><path
           id="path54"
           style="fill:#79cfb3;fill-opacity:1;fill-rule:nonzero;stroke:none"
           d="m 358.393,116.93 2.19,0 0,-5.942 -2.19,0 0,5.942 z" /><g
           transform="translate(377.918,103.4858)"
           id="g56"><path
             id="path58"
             style="fill:#797677;fill-opacity:1;fill-rule:nonzero;stroke:none"
             d="m 0,0 -6.459,0 0,-20.708 c 0,-4.785 2.25,-5.248 6.402,-5.132 l 0,-1.905 c -4.5,-0.287 -8.826,0.348 -8.595,7.037 l 0,20.708 -5.48,0 0,1.907 5.48,0 0,9.228 2.193,0 0,-9.228 L 0,1.907 0,0 Z" /></g><g
           transform="translate(377.8311,105.3926)"
           id="g60"><path
             id="path62"
             style="fill:#797677;fill-opacity:1;fill-rule:nonzero;stroke:none"
             d="M 0,0 2.597,0 13.614,-27.052 23.768,0 26.246,0 13.558,-32.822 c -1.211,-2.884 -2.194,-5.136 -3.462,-6.115 -1.557,-1.209 -3.576,-1.327 -6.921,-1.327 l 0,1.905 c 3.114,0 4.671,0.401 6.172,1.903 0.864,0.865 1.673,3.057 3.055,6.98 L 0,0 Z" /></g><path
           id="path64"
           style="fill:#797677;fill-opacity:1;fill-rule:nonzero;stroke:none"
           d="m 193.138,105.393 2.191,0 0,-29.651 -2.191,0 0,29.651 z" /><path
           id="path66"
           style="fill:#797677;fill-opacity:1;fill-rule:nonzero;stroke:none"
           d="m 288.327,105.393 2.192,0 0,-29.651 -2.192,0 0,29.651 z" /><path
           id="path68"
           style="fill:#797677;fill-opacity:1;fill-rule:nonzero;stroke:none"
           d="m 358.393,105.393 2.19,0 0,-29.651 -2.19,0 0,29.651 z" /></g></g></g></svg>